# xmcd CD database file
#
# Track frame offsets:
#	150
#	18740
#	33630
#	48922
#	64892
#	83780
#	101240
#	118897
#	135735
#	152075
#	173382
#	195515
#	221075
#	241190
#	264587
#	287680
#	311895
#
# Disc length: 4391 seconds
#
# Revision: 1
# Processed by: cddbd v1.5.1PL0 Copyright (c) Steve Scherf et al.
# Submitted via: CDex 1.51
#
DISCID=f8112511
DTITLE=Visualia River Brass Band - Vol 13
DYEAR=1989
DGENRE=Jazz
TTITLE0=the entertainer
TTITLE1=panama rag
TTITLE2=over the waves
TTITLE3=creole love call
TTITLE4=tiger rag
TTITLE5=st. james inifirmary
TTITLE6=buddy's habit
TTITLE7=liza
TTITLE8=the pearls
TTITLE9=kansas city stomp
TTITLE10=black and tan fantasy
TTITLE11=copenhagen
TTITLE12=nie to przy jecia rag
TTITLE13=sidewalk blues
TTITLE14=old folks shuffle
TTITLE15=basin street blues
TTITLE16=sweet georgia brown
EXTD=YEAR: 1989
EXTT0=
EXTT1=
EXTT2=
EXTT3=
EXTT4=
EXTT5=
EXTT6=
EXTT7=
EXTT8=
EXTT9=
EXTT10=
EXTT11=
EXTT12=
EXTT13=
EXTT14=
EXTT15=
EXTT16=
PLAYORDER=
